HIERARCHY
ROOT hip
{
	OFFSET 0.000000 0.000000 0.000000 
	CHANNELS 6 Xposition Yposition Zposition Xrotation Zrotation Yrotation
	JOINT abdomen
	{
		OFFSET 0.000000 3.402643 0.000000 
		CHANNELS 3 Xrotation Zrotation Yrotation
		JOINT chest
		{
			OFFSET 0.000000 8.438565 -0.680529 
			CHANNELS 3 Xrotation Zrotation Yrotation
			JOINT neck
			{
				OFFSET 0.000000 10.207942 -0.272212 
				CHANNELS 3 Xrotation Zrotation Yrotation
				JOINT head
				{
					OFFSET 0.000000 3.130431 0.000000 
					CHANNELS 3 Xrotation Zrotation Yrotation
					End Site
					{
						OFFSET 0.000000 3.130435 0.000000 
					}
				}
			}
			JOINT lCollar
			{
				OFFSET 3.470700 6.669187 -0.816635 
				CHANNELS 3 Yrotation Zrotation Xrotation
				JOINT lShldr
				{
					OFFSET 3.198488 0.000000 0.000000 
					CHANNELS 3 Zrotation Yrotation Xrotation
					JOINT lForeArm
					{
						OFFSET 10.139888 0.000000 0.000000 
						CHANNELS 3 Yrotation Zrotation Xrotation
						JOINT lHand
						{
							OFFSET 8.370511 0.000000 0.000000 
							CHANNELS 3 Zrotation Yrotation Xrotation
							End Site
							{
								OFFSET 4.083176 0.000000 0.000000 
							}
						}
					}
				}
			}
			JOINT rCollar
			{
				OFFSET -3.470700 6.669187 -0.816635 
				CHANNELS 3 Yrotation Zrotation Xrotation
				JOINT rShldr
				{
					OFFSET -3.198488 0.000000 0.000000 
					CHANNELS 3 Zrotation Yrotation Xrotation
					JOINT rForeArm
					{
						OFFSET -10.139888 0.000000 0.000000 
						CHANNELS 3 Yrotation Zrotation Xrotation
						JOINT rHand
						{
							OFFSET -8.370511 0.000000 0.000000 
							CHANNELS 3 Zrotation Yrotation Xrotation
							End Site
							{
								OFFSET -4.083176 0.000000 0.000000 
							}
						}
					}
				}
			}
		}
	}
	JOINT lThigh
	{
		OFFSET 5.308129 -1.633274 1.361059 
		CHANNELS 3 Xrotation Zrotation Yrotation
		JOINT lShin
		{
			OFFSET -2.041588 -20.007561 0.000000 
			CHANNELS 3 Xrotation Zrotation Yrotation
			JOINT lFoot
			{
				OFFSET 0.000000 -19.190928 -1.224953 
				CHANNELS 3 Xrotation Yrotation Zrotation
				End Site
				{
					OFFSET 0.000000 -2.449906 4.627600 
				}
			}
		}
	}
	JOINT rThigh
	{
		OFFSET -5.308129 -1.633274 1.361059 
		CHANNELS 3 Xrotation Zrotation Yrotation
		JOINT rShin
		{
			OFFSET 2.041588 -20.007561 0.000000 
			CHANNELS 3 Xrotation Zrotation Yrotation
			JOINT rFoot
			{
				OFFSET 0.000000 -19.190928 -1.224953 
				CHANNELS 3 Xrotation Yrotation Zrotation
				End Site
				{
					OFFSET 0.000000 -2.449906 4.627600 
				}
			}
		}
	}
}
MOTION
Frames: 13
Frame Time: 0.050000
0.000000 53.498543 0.305648 0.000000 0.000000 0.000000 -2.006758 0.944727 0.219258 -0.157568 1.873999 -0.642111 0.000000 0.000000 0.000000 0.000000 0.000000 0.000000 2.021920 -5.690310 -0.063351 -70.100700 9.978770 15.991600 -22.515600 -9.303740 0.147736 5.969490 -0.173112 0.175734 -3.326925 7.017795 -0.861956 61.989452 28.461750 3.335325 40.862076 11.848705 40.160828 6.091880 -9.777348 -9.912652 -7.544836 3.825864 0.166283 15.692924 -3.190763 -0.996407 -8.456968 1.081889 -0.779561 -7.531943 -4.331991 0.100592 15.644304 3.154346 0.579778 -8.544595 -1.596678 0.984486 
0.000000 53.498543 0.305648 0.000000 0.000000 0.000000 -1.235643 0.589212 0.135006 -0.138342 1.180138 -0.481683 0.000000 0.000000 0.000000 0.000000 0.000000 0.000000 2.021920 -5.690310 -0.063351 -70.100700 9.978770 15.991600 -22.515600 -9.303740 0.147736 5.969490 -0.173112 0.175734 -2.883186 6.441901 -0.676430 55.660732 29.541250 -5.486425 65.890938 10.348823 36.833744 20.813480 -15.186811 -15.212521 -7.544836 3.825864 0.166283 15.692924 -3.190763 -0.996407 -8.456968 1.081889 -0.779561 -7.531943 -4.331991 0.100592 15.644304 3.154346 0.579778 -8.544595 -1.596678 0.984486 
0.000000 53.498543 0.305648 0.000000 0.000000 0.000000 -0.394848 0.201572 0.043141 -0.117379 0.423579 -0.306758 0.000000 0.000000 0.000000 0.000000 0.000000 0.000000 2.021920 -5.690310 -0.063351 -70.100700 9.978770 15.991600 -22.515600 -9.303740 0.147736 5.969490 -0.173112 0.175734 -2.467811 5.902818 -0.502762 49.736546 30.551748 -13.744285 89.319946 8.944812 33.719330 34.594070 -20.250500 -20.173622 -7.544836 3.825864 0.166283 15.692924 -3.190763 -0.996407 -8.456968 1.081889 -0.779561 -7.531943 -4.331991 0.100592 15.644304 3.154346 0.579778 -8.544595 -1.596678 0.984486 
0.000000 53.498543 0.305648 0.000000 0.000000 0.000000 0.000000 0.019531 0.000000 -0.107534 0.068289 -0.224611 0.000000 0.000000 0.000000 0.000000 0.000000 0.000000 2.021920 -5.690310 -0.063351 -70.100700 9.978770 15.991600 -22.515600 -9.303740 0.147736 5.969490 -0.173112 0.175734 -2.128830 5.462880 -0.361035 44.901901 31.376400 -20.483400 108.440002 7.799020 31.177700 45.840199 -24.382900 -24.222300 -7.544836 3.825864 0.166283 15.692924 -3.190763 -0.996407 -8.456968 1.081889 -0.779561 -7.531943 -4.331991 0.100592 15.644304 3.154346 0.579778 -8.544595 -1.596678 0.984486 
0.000000 53.498543 0.305648 0.000000 0.000000 0.000000 0.000000 0.019531 0.000000 -0.107534 0.068289 -0.224611 0.000000 0.000000 0.000000 0.000000 0.000000 0.000000 2.021920 -5.690310 -0.063351 -70.100700 9.978770 15.991600 -22.515600 -9.303740 0.147736 5.969490 -0.173112 0.175734 -2.128815 5.462890 -0.361017 44.338600 29.064100 -21.792700 112.112000 7.632855 30.777351 47.878300 -23.973949 -26.031050 -7.544836 3.825864 0.166283 15.692924 -3.190763 -0.996407 -8.456968 1.081889 -0.779561 -7.531943 -4.331991 0.100592 15.644304 3.154346 0.579778 -8.544595 -1.596678 0.984486 
0.000000 53.498543 0.305648 0.000000 0.000000 0.000000 0.000000 0.019531 0.000000 -0.107534 0.068289 -0.224611 0.000000 0.000000 0.000000 0.000000 0.000000 0.000000 2.021920 -5.690310 -0.063351 -70.100700 9.978770 15.991600 -22.515600 -9.303740 0.147736 5.969490 -0.173112 0.175734 -2.128800 5.462900 -0.361000 43.775299 26.751801 -23.101999 115.783997 7.466690 30.377001 49.916401 -23.565001 -27.839800 -7.544836 3.825864 0.166283 15.692924 -3.190763 -0.996407 -8.456968 1.081889 -0.779561 -7.531943 -4.331991 0.100592 15.644304 3.154346 0.579778 -8.544595 -1.596678 0.984486 
0.000000 53.498543 0.305648 0.000000 0.000000 0.000000 0.000000 0.019531 0.000000 -0.107534 0.068289 -0.224611 0.000000 0.000000 0.000000 0.000000 0.000000 0.000000 2.021920 -5.690310 -0.063351 -70.100700 9.978770 15.991600 -22.515600 -9.303740 0.147736 5.969490 -0.173112 0.175734 -2.098816 5.458727 -0.350604 43.871708 24.201447 -23.513611 119.414261 7.194191 30.067122 51.414833 -23.508492 -29.244921 -7.544836 3.825864 0.166283 15.702876 -3.190818 -0.997066 -8.466883 1.081351 -0.779325 -7.531943 -4.331991 0.100592 15.642448 3.163769 0.580878 -8.544595 -1.596678 0.984486 
0.000000 53.498543 0.305648 0.000000 0.000000 0.000000 0.026042 0.058556 0.006504 -0.104282 0.093934 -0.299444 0.000000 0.000000 0.000000 0.000000 0.000000 0.000000 2.021920 -5.690310 -0.063351 -70.100700 9.978770 15.991600 -22.515600 -9.303740 0.147736 5.969490 -0.173112 0.175734 -2.128800 5.462900 -0.361000 44.127998 23.345800 -23.212700 120.664001 7.239240 29.855301 51.159100 -23.635799 -29.202999 -7.540894 3.833643 0.165844 15.702992 -3.193581 -0.977918 -8.468411 1.069222 -0.780238 -7.531943 -4.331991 0.100592 15.642448 3.163769 0.580878 -8.544595 -1.596678 0.984486 
0.000000 53.498543 0.305648 0.000000 0.000000 0.000000 0.052084 0.097581 0.013008 -0.101031 0.119579 -0.374277 0.000000 0.000000 0.000000 0.000000 0.000000 0.000000 2.021920 -5.690310 -0.063351 -70.100693 9.978770 15.991598 -22.515598 -9.303739 0.147736 5.969490 -0.173112 0.175734 -2.342658 5.493291 -0.434333 43.469704 27.879795 -22.788286 114.881485 8.271726 29.883682 47.332504 -23.564079 -26.053549 -7.540894 3.833643 0.165844 15.702992 -3.193581 -0.977918 -8.468411 1.069222 -0.780238 -7.531943 -4.331991 0.100592 15.652401 3.163825 0.581535 -8.554621 -1.596190 0.984390 
0.000000 53.498543 0.305648 0.000000 0.000000 0.000000 0.078127 0.136606 0.019512 -0.097779 0.145224 -0.449110 0.000000 0.000000 0.000000 0.000000 0.000000 0.000000 2.021920 -5.690310 -0.063351 -70.100693 9.978770 15.991598 -22.515598 -9.303740 0.147736 5.969490 -0.173112 0.175734 -2.640439 5.539014 -0.531989 41.791725 36.316349 -22.616207 103.606522 9.961311 30.159248 41.014858 -23.278704 -20.759068 -7.540894 3.833643 0.165844 15.702992 -3.193581 -0.977918 -8.468412 1.069221 -0.790004 -7.531943 -4.331991 0.100592 15.652401 3.163825 0.581535 -8.554621 -1.596193 0.994155 
0.000000 53.498543 0.305648 0.000000 0.000000 0.000000 -0.007080 0.040714 -0.085220 -0.219014 -0.005107 -0.445552 0.000000 0.000000 0.000000 0.000000 0.000000 0.000000 2.021920 -5.690310 -0.063351 -70.100700 9.978770 15.991600 -22.515600 -9.303740 0.147736 5.969490 -0.173112 0.175734 -2.866230 5.581990 -0.595162 39.231300 45.872898 -23.018999 89.926804 11.727600 30.655199 34.010101 -22.857100 -14.937800 -7.540894 3.833643 0.165844 15.700761 -3.203203 -0.988779 -8.466180 1.086886 -0.779093 -7.531943 -4.331991 0.100592 15.650542 3.173246 0.582635 -8.546735 -1.585100 0.985112 
0.000000 53.498543 0.305648 0.000000 0.000000 0.000000 -0.092286 -0.055177 -0.189953 -0.340249 -0.155437 -0.441993 0.000000 0.000000 0.000000 0.000000 0.000000 0.000000 2.021920 -5.690310 -0.063351 -70.100700 9.978770 15.991601 -22.515600 -9.303740 0.147736 5.969490 -0.173112 0.175734 -2.901523 5.607965 -0.579880 35.967697 54.242477 -24.211906 76.497734 13.097769 31.334341 27.813162 -22.365215 -9.918511 -7.540894 3.833643 0.165844 15.711078 -3.203069 -0.979682 -8.477117 1.078280 -0.789230 -7.531943 -4.331992 0.100592 15.650542 3.173247 0.582635 -8.546735 -1.585101 0.985111 
0.000000 53.498543 0.305648 0.000000 0.000000 0.000000 -0.177493 -0.151069 -0.294685 -0.461484 -0.305768 -0.438435 0.000000 0.000000 0.000000 0.000000 0.000000 0.000000 2.021919 -5.690309 -0.063351 -70.100685 9.978768 15.991597 -22.515596 -9.303738 0.147736 5.969489 -0.173112 0.175734 -2.777434 5.617972 -0.501505 32.348320 61.020580 -25.980993 64.245651 14.029266 32.117931 22.683025 -21.823097 -5.872063 -7.545643 3.845797 0.166301 15.711285 -3.200366 -0.989101 -8.477257 1.077167 -0.799081 -7.531943 -4.331993 0.100592 15.650540 3.173249 0.582635 -8.546735 -1.585102 0.985111 
